<?xml version="1.0" encoding="utf-8"?>
<!-- Generator: Adobe Illustrator 24.0.0, SVG Export Plug-In . SVG Version: 6.00 Build 0)  -->
<svg version="1.1" id="Layer_1" xmlns="http://www.w3.org/2000/svg" xmlns:xlink="http://www.w3.org/1999/xlink" x="0px" y="0px"
	 viewBox="0 0 1360 480" style="enable-background:new 0 0 1360 480;" xml:space="preserve">
<style type="text/css">
	.st0{fill:#EFEFEF;}
	.st1{fill:#4E5CA6;}
	.st2{fill:#FFFFFF;}
</style>
<g>
	<g>
		<path class="st0" d="M188.07,324H45.04c-7.98,0-14.45-6.47-14.45-14.45v-139.1c0-7.98,6.47-14.45,14.45-14.45h143.03
			c7.98,0,14.45,6.47,14.45,14.45v139.1C202.52,317.53,196.05,324,188.07,324z"/>
	</g>
	<g>
		<path class="st1" d="M167.27,184.3l-32.62,64.49c-0.92,1.82,0.4,3.96,2.44,3.96h34.96c1.51,0,2.73,1.22,2.73,2.73v41.46
			c0,1.51-1.22,2.73-2.73,2.73H64.18c-2.03,0-3.35-2.14-2.44-3.95l32.43-64.75c0.91-1.81-0.41-3.95-2.44-3.95H61.05
			c-1.51,0-2.73-1.22-2.73-2.73v-41.22c0-1.51,1.22-2.73,2.73-2.73h103.78C166.87,180.34,168.19,182.48,167.27,184.3z"/>
	</g>
</g>
<g>
	<path class="st2" d="M357.13,293.49h-84.37V275.6l54.7-69.61h-54.55v-19.53h82.43v18.19l-55,69.31h56.79V293.49z"/>
	<path class="st2" d="M419.29,293.49v-9.84c-2.58,3.68-5.86,6.48-9.84,8.42c-3.98,1.94-8.7,2.91-14.16,2.91
		c-8.25,0-14.91-2.24-19.97-6.71s-7.6-10.43-7.6-17.89c0-7.75,3.08-13.66,9.24-17.74c6.16-4.07,15-6.11,26.53-6.11
		c2.28,0,4.47,0.08,6.56,0.22c2.09,0.15,4.32,0.37,6.71,0.67v-4.77c0-4.47-1.19-7.95-3.58-10.43c-2.38-2.48-5.76-3.73-10.14-3.73
		c-4.47,0-8,1.24-10.58,3.73c-2.58,2.49-4.08,5.96-4.47,10.43h-18.63c0.4-6.16,2.06-11.5,4.99-16.02
		c2.93-4.52,6.86-8.02,11.78-10.51c4.92-2.48,10.56-3.73,16.92-3.73c10.43,0,18.56,2.73,24.37,8.2c5.81,5.47,8.72,13.07,8.72,22.81
		v50.08H419.29z M387.24,269.79c0,3.28,1.12,5.91,3.35,7.9c2.24,1.99,5.29,2.98,9.17,2.98c5.27,0,9.41-1.37,12.45-4.1
		c3.03-2.73,4.55-6.38,4.55-10.96v-5.67c-2.38-0.4-4.52-0.67-6.41-0.82c-1.89-0.15-3.73-0.22-5.52-0.22
		c-5.76,0-10.14,0.89-13.12,2.68C388.73,263.38,387.24,266.11,387.24,269.79z"/>
	<path class="st2" d="M522.88,213.89l-38.75,108.36h-22.51l11.33-29.66l-31.3-78.7H464l19.97,54.55l18.19-54.55H522.88z"/>
	<path class="st2" d="M604.86,213.89l-38.75,108.36H543.6l11.33-29.66l-31.3-78.7h22.36l19.97,54.55l18.18-54.55H604.86z"/>
	<path class="st2" d="M659.27,293.49v-9.84c-2.59,3.68-5.86,6.48-9.84,8.42c-3.98,1.94-8.7,2.91-14.16,2.91
		c-8.25,0-14.91-2.24-19.97-6.71c-5.07-4.47-7.6-10.43-7.6-17.89c0-7.75,3.08-13.66,9.24-17.74c6.16-4.07,15-6.11,26.53-6.11
		c2.28,0,4.47,0.08,6.56,0.22c2.09,0.15,4.32,0.37,6.71,0.67v-4.77c0-4.47-1.19-7.95-3.58-10.43c-2.38-2.48-5.76-3.73-10.14-3.73
		c-4.47,0-8,1.24-10.58,3.73c-2.59,2.49-4.08,5.96-4.47,10.43h-18.63c0.4-6.16,2.06-11.5,4.99-16.02
		c2.93-4.52,6.86-8.02,11.78-10.51c4.92-2.48,10.56-3.73,16.92-3.73c10.43,0,18.56,2.73,24.37,8.2c5.81,5.47,8.72,13.07,8.72,22.81
		v50.08H659.27z M627.22,269.79c0,3.28,1.12,5.91,3.35,7.9c2.24,1.99,5.29,2.98,9.17,2.98c5.27,0,9.41-1.37,12.45-4.1
		c3.03-2.73,4.55-6.38,4.55-10.96v-5.67c-2.38-0.4-4.52-0.67-6.41-0.82c-1.89-0.15-3.73-0.22-5.52-0.22
		c-5.76,0-10.14,0.89-13.12,2.68C628.71,263.38,627.22,266.11,627.22,269.79z"/>
	<path class="st2" d="M714.71,250.11v43.38H694v-79.6h19.08v11.33c2.98-3.97,6.48-7.1,10.51-9.39c4.02-2.28,8.67-3.43,13.94-3.43
		c8.05,0,14.56,2.56,19.53,7.68c4.97,5.12,7.45,12.45,7.45,21.99v51.42h-20.57v-44.42c0-5.96-1.17-10.51-3.5-13.64
		c-2.34-3.13-5.84-4.7-10.51-4.7c-2.78,0-5.34,0.72-7.68,2.16c-2.34,1.44-4.17,3.58-5.51,6.41
		C715.38,242.14,714.71,245.74,714.71,250.11z"/>
	<path class="st2" d="M829.78,293.49v-9.84c-2.59,3.68-5.86,6.48-9.84,8.42c-3.98,1.94-8.7,2.91-14.16,2.91
		c-8.25,0-14.91-2.24-19.97-6.71c-5.07-4.47-7.6-10.43-7.6-17.89c0-7.75,3.08-13.66,9.24-17.74c6.16-4.07,15-6.11,26.53-6.11
		c2.28,0,4.47,0.08,6.56,0.22c2.09,0.15,4.32,0.37,6.71,0.67v-4.77c0-4.47-1.19-7.95-3.58-10.43c-2.38-2.48-5.76-3.73-10.14-3.73
		c-4.47,0-8,1.24-10.58,3.73c-2.59,2.49-4.08,5.96-4.47,10.43h-18.63c0.4-6.16,2.06-11.5,4.99-16.02
		c2.93-4.52,6.86-8.02,11.78-10.51c4.92-2.48,10.56-3.73,16.92-3.73c10.43,0,18.56,2.73,24.37,8.2c5.81,5.47,8.72,13.07,8.72,22.81
		v50.08H829.78z M797.74,269.79c0,3.28,1.12,5.91,3.35,7.9c2.24,1.99,5.29,2.98,9.17,2.98c5.27,0,9.41-1.37,12.45-4.1
		c3.03-2.73,4.55-6.38,4.55-10.96v-5.67c-2.38-0.4-4.52-0.67-6.41-0.82c-1.89-0.15-3.73-0.22-5.52-0.22
		c-5.76,0-10.14,0.89-13.12,2.68C799.23,263.38,797.74,266.11,797.74,269.79z"/>
	<path class="st2" d="M943.96,253.69c0,7.75-1.47,14.76-4.4,21.02c-2.93,6.26-7.03,11.21-12.3,14.83
		c-5.27,3.63-11.48,5.44-18.63,5.44c-5.07,0-9.74-1.14-14.01-3.43c-4.27-2.29-7.95-5.46-11.03-9.54v11.48h-19.08V186.47h20.72v37.71
		c2.98-3.88,6.43-6.81,10.36-8.79c3.92-1.99,8.27-2.98,13.04-2.98c7.15,0,13.36,1.79,18.63,5.37c5.27,3.58,9.37,8.5,12.3,14.76
		C942.49,238.79,943.96,245.84,943.96,253.69z M922.64,253.69c0-7.65-1.84-13.39-5.51-17.22c-3.68-3.82-8.05-5.74-13.12-5.74
		c-3.38,0-6.48,0.85-9.32,2.53c-2.83,1.69-5.09,4.23-6.78,7.6c-1.69,3.38-2.53,7.55-2.53,12.52c0,4.97,0.82,9.17,2.46,12.59
		c1.64,3.43,3.9,6.04,6.78,7.83c2.88,1.79,6.01,2.68,9.39,2.68c5.07,0,9.44-1.94,13.12-5.81
		C920.8,266.81,922.64,261.14,922.64,253.69z"/>
	<path class="st2" d="M952.01,253.69c0-7.85,1.46-14.91,4.4-21.17c2.93-6.26,7.05-11.18,12.37-14.76c5.32-3.58,11.5-5.37,18.56-5.37
		c4.77,0,9.14,0.99,13.12,2.98c3.97,1.99,7.45,4.92,10.43,8.79v-37.71h20.57v107.02h-18.93v-11.48c-3.18,4.08-6.88,7.25-11.1,9.54
		c-4.22,2.28-8.92,3.43-14.09,3.43c-7.06,0-13.24-1.81-18.56-5.44c-5.32-3.63-9.44-8.57-12.37-14.83
		C953.47,268.45,952.01,261.44,952.01,253.69z M973.32,253.69c0,7.45,1.84,13.12,5.51,16.99c3.67,3.88,8.05,5.81,13.12,5.81
		c3.48,0,6.63-0.89,9.46-2.68c2.83-1.79,5.09-4.4,6.78-7.83c1.69-3.43,2.53-7.63,2.53-12.59c0-4.97-0.87-9.14-2.61-12.52
		c-1.74-3.38-4.03-5.91-6.86-7.6c-2.83-1.69-5.94-2.53-9.32-2.53c-5.07,0-9.44,1.91-13.12,5.74
		C975.16,240.3,973.32,246.04,973.32,253.69z"/>
	<path class="st2" d="M1073.93,195.41c0,3.48-1.27,6.39-3.8,8.72c-2.53,2.34-5.89,3.5-10.06,3.5c-4.08,0-7.38-1.17-9.91-3.5
		c-2.53-2.33-3.8-5.24-3.8-8.72c0-3.67,1.27-6.68,3.8-9.02c2.53-2.33,5.84-3.5,9.91-3.5c4.17,0,7.53,1.17,10.06,3.5
		C1072.67,188.73,1073.93,191.74,1073.93,195.41z M1070.66,293.49h-20.72v-79.6h20.72V293.49z"/>
	<path class="st2" d="M1110,293.49h-20.87V186.47H1110V293.49z"/>
	<path class="st2" d="M1149.5,293.49h-20.87V186.47h20.87V293.49z"/>
	<path class="st2" d="M1215.54,293.49v-9.84c-2.59,3.68-5.86,6.48-9.84,8.42c-3.98,1.94-8.7,2.91-14.16,2.91
		c-8.25,0-14.91-2.24-19.97-6.71c-5.07-4.47-7.6-10.43-7.6-17.89c0-7.75,3.08-13.66,9.24-17.74c6.16-4.07,15-6.11,26.53-6.11
		c2.28,0,4.47,0.08,6.56,0.22c2.09,0.15,4.32,0.37,6.71,0.67v-4.77c0-4.47-1.19-7.95-3.58-10.43c-2.38-2.48-5.76-3.73-10.14-3.73
		c-4.47,0-8,1.24-10.58,3.73c-2.59,2.49-4.08,5.96-4.47,10.43h-18.63c0.4-6.16,2.06-11.5,4.99-16.02
		c2.93-4.52,6.86-8.02,11.78-10.51c4.92-2.48,10.56-3.73,16.92-3.73c10.43,0,18.56,2.73,24.37,8.2c5.81,5.47,8.72,13.07,8.72,22.81
		v50.08H1215.54z M1183.49,269.79c0,3.28,1.12,5.91,3.35,7.9c2.24,1.99,5.29,2.98,9.17,2.98c5.27,0,9.41-1.37,12.45-4.1
		c3.03-2.73,4.55-6.38,4.55-10.96v-5.67c-2.38-0.4-4.52-0.67-6.41-0.82c-1.89-0.15-3.73-0.22-5.52-0.22
		c-5.76,0-10.14,0.89-13.12,2.68C1184.98,263.38,1183.49,266.11,1183.49,269.79z"/>
	<path class="st2" d="M1270.98,250.11v43.38h-20.72V186.47h20.72v37.86c2.68-3.67,5.84-6.58,9.47-8.72c3.63-2.14,8.07-3.2,13.34-3.2
		c8.05,0,14.56,2.56,19.53,7.68c4.97,5.12,7.45,12.45,7.45,21.99v51.42h-20.57v-44.42c0-5.96-1.17-10.51-3.5-13.64
		c-2.34-3.13-5.84-4.7-10.51-4.7c-2.78,0-5.34,0.72-7.68,2.16c-2.34,1.44-4.17,3.58-5.51,6.41
		C1271.65,242.14,1270.98,245.74,1270.98,250.11z"/>
</g>
<g>
</g>
<g>
</g>
<g>
</g>
<g>
</g>
<g>
</g>
<g>
</g>
<g>
</g>
<g>
</g>
<g>
</g>
<g>
</g>
<g>
</g>
<g>
</g>
<g>
</g>
<g>
</g>
<g>
</g>
</svg>
